<svg xmlns="http://www.w3.org/2000/svg" viewBox="0 0 512 512">
  <rect width="512" height="512" rx="112" fill="#EE654E"/>
  <path d="M120 154c0-25 20-46 46-46h180c25 0 46 21 46 46v204c0 25-21 46-46 46H166c-26 0-46-21-46-46V154Z" fill="#FFF9F0"/>
  <path d="M182 108h148l-12-28c-5-11-16-18-28-18h-68c-12 0-23 7-28 18l-12 28Z" fill="#1E2B27"/>
  <circle cx="256" cy="251" r="74" fill="#EE654E"/>
  <circle cx="256" cy="251" r="44" fill="#FFF9F0"/>
  <circle cx="344" cy="162" r="17" fill="#1E2B27"/>
  <path d="M190 352h132" stroke="#1E2B27" stroke-width="18" stroke-linecap="round"/>
</svg>
